<?xml version="1.0" encoding="UTF-8"?>
<svg width="896px" height="414px" viewBox="0 0 896 414" version="1.1" xmlns="http://www.w3.org/2000/svg" xmlns:xlink="http://www.w3.org/1999/xlink">
    <!-- Generator: Sketch 54.1 (76490) - https://sketchapp.com -->
    <title>5</title>
    <desc>Created with Sketch.</desc>
    <defs>
        <polygon id="path-1" points="0 0 120 0 120 69 0 69"></polygon>
        <rect id="path-3" x="0" y="0" width="116" height="116" rx="2"></rect>
        <filter x="-6.0%" y="-4.3%" width="112.1%" height="112.1%" filterUnits="objectBoundingBox" id="filter-4">
            <feOffset dx="0" dy="2" in="SourceAlpha" result="shadowOffsetOuter1"></feOffset>
            <feGaussianBlur stdDeviation="2" in="shadowOffsetOuter1" result="shadowBlurOuter1"></feGaussianBlur>
            <feColorMatrix values="0 0 0 0 0   0 0 0 0 0   0 0 0 0 0  0 0 0 0.5 0" type="matrix" in="shadowBlurOuter1"></feColorMatrix>
        </filter>
    </defs>
    <g id="5" stroke="none" stroke-width="1" fill="none" fill-rule="evenodd">
        <path d="M855,38 L873,38 L873,36 L855,36 L855,38 L855,38 Z M855,33 L873,33 L873,31 L855,31 L855,33 L855,33 Z M855,26 L855,28 L873,28 L873,26 L855,26 L855,26 Z" id="Shape" fill="#000000"></path>
        <rect id="Rectangle" fill="#ECECEC" x="0" y="316" width="896" height="102"></rect>
        <g id="Scan" transform="translate(344.000000, 123.000000)">
            <g id="Group-3" stroke-width="1" transform="translate(44.000000, 0.000000)">
                <mask id="mask-2" fill="white">
                    <use xlink:href="#path-1"></use>
                </mask>
                <g id="Clip-2"></g>
                <path d="M98.8738318,23.4255807 C96.649274,25.5900117 96.6017348,29.6977105 96.8799793,33.8148491 C97.1274631,36.6265865 97.1190738,39.453158 96.8548114,42.2621982 C94.9644267,43.8737216 93.2991544,45.7118021 91.8981444,47.7319377 L28.1018556,47.7319377 C26.7008456,45.7104536 25.0341751,43.8737216 23.1451886,42.2635468 C22.8809262,39.453158 22.8725369,36.6265865 23.1186225,33.8148491 C23.3982652,29.6977105 23.3493278,25.5900117 21.1261682,23.4255807 C20.8339416,23.1450813 20.5067596,22.8996442 20.1502152,22.697361 L20.1502152,14.962049 C20.1530116,12.9527019 21.8406554,11.3236474 23.9239935,11.3209502 L96.0746083,11.3209502 C98.1579464,11.3236474 99.8455902,12.9527019 99.8483866,14.962049 L99.8483866,22.6987095 C99.4932404,22.8996442 99.1660584,23.1450813 98.8738318,23.4255807 M88.3956195,52.3386019 C88.0991983,52.071588 87.6965128,51.9407781 87.2924291,51.9812348 C85.9767101,52.1174388 84.6553983,51.8018769 83.5591989,51.0884913 C83.3480687,50.9023907 83.173292,50.677182 83.048851,50.4290479 L90.4691702,50.4290479 C90.3852774,50.6448167 90.2804114,50.8551913 90.2105007,51.0709601 C89.7043474,52.7782308 89.4470761,54.544838 89.4442797,56.3181879 C89.0443906,55.3863364 88.837455,54.3857085 88.8360568,53.3756407 C88.8528354,52.9845598 88.6920408,52.6056158 88.3956195,52.3386019 M36.4477921,51.0830971 C35.3501945,51.8005284 34.0246881,52.1187874 32.7075709,51.9812348 C31.9385535,51.9030186 31.2506324,52.4397435 31.1695361,53.1801002 C31.162545,53.2461794 31.1597486,53.3109101 31.162545,53.3756407 C31.1695361,54.4032397 30.9639987,55.4227474 30.5585167,56.3721301 C30.5585167,54.5799004 30.2998472,52.795762 29.7894993,51.0723086 C29.7209868,50.8551913 29.6147226,50.6448167 29.5294316,50.4303964 L36.951149,50.4303964 C36.826708,50.677182 36.656126,50.898345 36.4477921,51.0830971 M118.748039,40.46862 C118.350946,39.0162261 117.900722,37.3696404 117.470072,35.4250239 C115.825773,27.9971825 113.727054,19.5956843 110.624418,13.6121453 C109.897347,12.2082995 109.180064,10.7491629 108.487948,9.33992282 C105.579664,3.42246308 104.101752,0.556783514 102.302251,0.0996233389 C100.955772,-0.191664561 99.5463725,0.164353983 98.5228802,1.0557489 C97.015606,2.4070011 96.3318796,4.40960541 96.7121936,6.35961607 C96.8212543,7.28877052 96.9526864,8.06553826 97.0883131,8.72363314 C96.7527418,8.66429672 96.4143742,8.63193139 96.0746083,8.62384006 L23.9239935,8.62384006 C23.5842276,8.63193139 23.24586,8.66429672 22.9102887,8.72363314 C23.0473136,8.06553826 23.1773475,7.28877052 23.2864082,6.35961607 C23.6681204,4.40960541 22.984394,2.4070011 21.4771198,1.0557489 C20.4522293,0.164353983 19.0428301,-0.191664561 17.6963504,0.0996233389 C15.8968496,0.556783514 14.4203361,3.42246308 11.512052,9.33992282 C10.8185381,10.7491629 10.1026527,12.2082995 9.3741835,13.6121453 C6.27154767,19.5956843 4.17422737,27.9971825 2.52992825,35.4250239 C2.09788027,37.3696404 1.64905373,39.0162261 1.25196108,40.46862 C0.0928420641,44.7057801 -0.671980739,47.5040319 0.849275586,51.2058156 C2.62221035,55.523889 2.44463723,60.8412417 1.63367338,67.493664 C1.54418771,68.2326722 2.09228742,68.902904 2.85850843,68.9905601 C2.91303876,68.9959543 2.9689673,69 3.02349763,68.9986514 C3.73239189,68.9986514 4.32803086,68.4875491 4.41052545,67.8092259 C5.2732232,60.74954 5.4382124,55.0559404 3.44855454,50.213279 C2.26566589,47.3341139 2.8654995,45.1400148 3.95470784,41.1563831 C4.36018977,39.6756696 4.81880381,37.9953699 5.26343571,35.98872 C6.77770097,29.1501971 8.89599447,20.5639468 11.8755875,14.8177536 C12.612446,13.3977251 13.3381189,11.9210573 14.0386238,10.4956345 C15.5528891,7.41283759 17.627838,3.19051161 18.4094393,2.70772888 C18.8624605,2.64569535 19.3196764,2.78864219 19.6468583,3.09611275 C20.4214686,3.88501748 20.7444559,4.99218121 20.5095561,6.05619117 C20.4060883,7.49779656 20.0831009,8.91782507 19.5503816,10.2690773 C18.1577609,11.4598514 17.359381,13.1671222 17.3537881,14.962049 L17.3537881,21.9893696 C17.1244811,21.9826268 16.9063598,21.9583528 16.6644689,21.9704898 C11.8671982,22.2280638 11.8546143,27.4645032 11.8420304,31.6719951 C11.8658,33.051567 11.8140661,34.4311388 11.6840323,35.8039679 C11.4043895,38.4714099 10.6339739,41.068727 9.40774062,43.4732007 C9.02742654,44.1205071 9.26372463,44.9444743 9.93626534,45.3112813 C10.608806,45.6780883 11.4617163,45.4501825 11.8420304,44.8015275 C13.2612171,42.0855375 14.1490827,39.1429903 14.4608843,36.1168327 C14.6035021,34.6415134 14.6636253,33.1594514 14.6384574,31.6787379 C14.6524396,26.8144997 14.9572501,24.7633474 16.8196706,24.6635543 C17.6572005,24.5206075 18.5157036,24.7660445 19.1393068,25.3229977 C20.6130239,26.7592089 20.5235382,30.7563262 20.3277883,33.6381884 C20.0006063,36.822127 20.0453492,40.0330367 20.4606186,43.2061868 C20.52214,43.517703 20.6941203,43.7968539 20.9471969,43.9977886 C20.9961344,44.0368967 25.8605193,47.9301753 27.116115,51.8639105 C28.3759054,56.6728579 27.7620897,61.7596077 25.3907195,66.159943 C25.0201929,66.8126436 25.2676767,67.6325651 25.9444121,67.9899322 C26.6225456,68.3486479 27.4726595,68.1099536 27.8431861,67.457253 C28.6345749,66.0493615 29.2525853,64.556511 29.6846333,63.0097183 C31.7777589,60.6119873 33.2221135,57.7503534 33.8862649,54.6796935 C35.4928123,54.6338426 37.0392365,54.0822836 38.2920358,53.1086268 C39.1085925,52.4033325 39.6706743,51.4647382 39.8985831,50.4303964 L80.1000186,50.4303964 C80.3279275,51.4647382 80.8914075,52.4033325 81.7079642,53.1086268 C82.9593653,54.0822836 84.5071877,54.6338426 86.1137351,54.6796935 C86.7778865,57.7503534 88.2222411,60.6119873 90.3153667,63.0097183 C90.7474147,64.556511 91.3640269,66.0493615 92.1554157,67.457253 C92.5273405,68.1099536 93.3774544,68.3486479 94.0555879,67.9899322 C94.7309251,67.6325651 94.9798071,66.8126436 94.6078823,66.159943 C92.2365121,61.7596077 91.6226964,56.6728579 92.883885,51.8639105 C94.1380825,47.9301753 99.0038656,44.0368967 99.0528031,43.9977886 C99.3058797,43.7968539 99.47786,43.517703 99.5393814,43.2061868 C99.9532526,40.0330367 99.9993937,36.822127 99.6708135,33.6381884 C99.4764618,30.7563262 99.3855779,26.7592089 100.860693,25.3229977 C101.482898,24.7646959 102.341401,24.5206075 103.178931,24.6635543 C105.041352,24.7633474 105.34756,26.8144997 105.361543,31.6787379 C105.336375,33.1594514 105.3951,34.6415134 105.539116,36.1168327 C105.849519,39.1429903 106.737385,42.0855375 108.15797,44.8015275 C108.54108,45.4488339 109.395389,45.6726941 110.066531,45.3018414 C110.732081,44.9350344 110.966981,44.1164615 110.590861,43.4705036 C109.357637,41.068727 108.587221,38.4714099 108.315968,35.8039679 C108.185934,34.4311388 108.132802,33.051567 108.15797,31.6719951 C108.145386,27.4645032 108.131404,22.2280638 103.334133,21.9704898 C103.09364,21.9570042 102.874121,21.9812782 102.644814,21.988021 L102.644814,14.962049 C102.639221,13.1684707 101.840841,11.4598514 100.449618,10.2690773 C99.9141026,8.91917363 99.5911153,7.49779656 99.4890457,6.05619117 C99.2541458,4.99218121 99.5771332,3.88501748 100.353142,3.09611275 C100.656554,2.81561329 101.062036,2.66322657 101.482898,2.66862079 C102.372162,3.19051161 104.445713,7.41283759 105.959978,10.4956345 C106.660483,11.9210573 107.387554,13.3977251 108.123014,14.8177536 C111.102607,20.5639468 113.222299,29.1501971 114.736564,35.9900685 C115.179798,37.9967185 115.638412,39.6756696 116.043894,41.1563831 C117.1345,45.1400148 117.732936,47.3354625 116.551445,50.2146276 C114.561788,55.0572889 114.726777,60.74954 115.588076,67.8092259 C115.671969,68.4875491 116.26621,68.9986514 116.975104,69 C117.029634,69 117.085563,68.9959543 117.140093,68.9919087 C117.906314,68.902904 118.455812,68.2326722 118.364928,67.493664 C117.553965,60.8412417 117.376391,55.5252375 119.150724,51.2071641 C120.671981,47.5040319 119.907158,44.7057801 118.748039,40.46862" id="Fill-1" fill="#000000" mask="url(#mask-2)"></path>
            </g>
            <polygon id="Shape" fill="#000000" points="200 27 198.6 28.4 204.2 34 192 34 192 36 204.2 36 198.6 41.6 200 43 208 35"></polygon>
            <polygon id="Shape" fill="#000000" points="16 34 3.8 34 9.4 28.4 8 27 3.01980663e-14 35 8 43 9.4 41.6 3.8 36 16 36"></polygon>
        </g>
        <text id="Move-your-device-fro" font-family="Roboto-Regular, Roboto" font-size="14" font-weight="normal" line-spacing="22" fill="#000000">
            <tspan x="333.073342" y="360">Move your device from left to right to </tspan>
            <tspan x="350.949319" y="382">scan the surface on the ground</tspan>
        </text>
        <g id="Go-back" transform="translate(32.000000, 24.000000)" fill="#000000">
            <polygon id="Shape" points="16 7 3.8 7 9.4 1.4 8 0 3.01980663e-14 8 8 16 9.4 14.6 3.8 9 16 9"></polygon>
        </g>
        <g id="Post-it®" transform="translate(627.000000, 0.000000)">
            <g id="Paper">
                <use fill="black" fill-opacity="1" filter="url(#filter-4)" xlink:href="#path-3"></use>
                <use fill="#FFF285" fill-rule="evenodd" xlink:href="#path-3"></use>
            </g>
            <text id="The-icon-should-have" font-family="Helvetica" font-size="14" font-weight="normal" fill="#000000">
                <tspan x="6" y="22">The icon should </tspan>
                <tspan x="6" y="39">have an </tspan>
                <tspan x="6" y="56">animation of </tspan>
                <tspan x="6" y="73">moving from left </tspan>
                <tspan x="6" y="90">to right</tspan>
            </text>
        </g>
    </g>
</svg>