<?xml version="1.0" encoding="UTF-8"?>
<svg width="896px" height="414px" viewBox="0 0 896 414" version="1.1" xmlns="http://www.w3.org/2000/svg" xmlns:xlink="http://www.w3.org/1999/xlink">
    <!-- Generator: Sketch 54.1 (76490) - https://sketchapp.com -->
    <title>6</title>
    <desc>Created with Sketch.</desc>
    <g id="6" stroke="none" stroke-width="1" fill="none" fill-rule="evenodd">
        <path d="M855,35 L873,35 L873,33 L855,33 L855,35 L855,35 Z M855,30 L873,30 L873,28 L855,28 L855,30 L855,30 Z M855,23 L855,25 L873,25 L873,23 L855,23 L855,23 Z" id="Shape" fill="#000000"></path>
        <rect id="Rectangle" fill="#ECECEC" x="0" y="316" width="896" height="102"></rect>
        <text id="Tap-on-the-screen-on" font-family="Roboto-Regular, Roboto" font-size="14" font-weight="normal" line-spacing="22" fill="#000000">
            <tspan x="257.857522" y="360">Tap on the screen once you are ready to begin the experience</tspan>
            <tspan x="408.83262" y="382" font-family="Roboto-Bold, Roboto" font-weight="bold">Takhat Vilas</tspan>
        </text>
        <polygon id="Shape" fill="#000000" points="48 31 35.8 31 41.4 25.4 40 24 32 32 40 40 41.4 38.6 35.8 33 48 33"></polygon>
        <g id="Group-9" transform="translate(422.000000, 105.000000)" stroke="#000000" stroke-linecap="round" stroke-width="2">
            <path d="M26.0128205,20.7254902 C21.3653846,19.2156863 18,15.2352941 18,10.7058824 C18,4.80392157 23.6089744,0 30.5,0 C37.3910256,0 43,4.80392157 43,10.7058824 C43,15.5098039 39.3141026,19.627451 34.1858974,21" id="Stroke-1" stroke-linejoin="round"></path>
            <path d="M7.40165342,37.0543131 C5.61486147,35.5079872 4.47781206,35.9297125 3.01589138,36.6325879 C2.36614885,36.913738 1.71640633,37.4760383 1.39153506,38.1789137 C-0.395256879,40.8498403 -0.0703856164,44.0830671 0.256110002,47.1757188 C1.71640633,59.2651757 9.02600973,71.3546326 9.83818789,83.5846645 C10.3254948,89.7699681 9.67575225,95.9552716 8.37789156,102" id="Stroke-3"></path>
            <path d="M8,45 L8,36.4557621 C8,34.9149979 8,33.3742336 8.80357143,32.1136084 C9.60714286,30.8529831 10.5714286,30.1526357 12.1785714,30.0125663 C14.9107143,29.7324273 17,34.2146505 17,35.6153452" id="Stroke-5"></path>
            <path d="M17,38.1898437 L17,29.3964218 C17,28.6985311 17,28.0006405 17.3206401,27.3027499 C17.6412801,26.8840155 17.9635234,26.4652811 18.4428803,26.1861249 C20.8476808,24.7903436 22.9318413,25.3486561 24.5350416,27.442328 C26.298562,29.8151562 26.138242,36.2357499 26.138242,36.2357499 C25.9795252,29.2568436 25.9795252,21.4404686 26.7811253,14.4615624 C26.9398422,12.7866249 27.5827255,7.48265612 31.5907264,8.04096862 C33.5129636,8.32012487 33.8336037,12.2283124 33.8336037,12.2283124 C34.6352038,24.092453 33.0320035,36.2357499 34.9558439,48.0998906 C35.1161639,49.4956718 35.5987272,51.0310312 36.8796843,51.7289218 C38.1622446,51.1706093 41.0480052,45.7270624 42.0115286,43.9125468 C43.1321657,41.6792968 43.7734458,39.3064687 44.735366,37.2127968 C45.8576063,34.9795468 47.6227299,32.8858749 50.1862472,32.0484062 C50.9878474,31.7692499 51.9497676,31.6296718 52.4323309,32.1879843 C52.7513678,32.4671405 52.9116878,32.7462968 52.9116878,33.025453 C53.3926479,34.8399687 51.7894476,36.5149062 50.9878474,38.3294218 C50.1862472,40.0043593 50.1862472,41.8188749 50.0275304,43.6333905 C49.384647,50.0539843 42.9718456,68.4782968 37.3606444,74.201 C30.4668829,81.1799062 32.8716834,91.9274219 31.9097632,101" id="Stroke-7" stroke-linejoin="round"></path>
        </g>
    </g>
</svg>